<svg width="306" height="42" viewBox="0 0 306 42" fill="none" xmlns="http://www.w3.org/2000/svg">
<g clip-path="url(#clip0)">
<path d="M22.4483 32.0963C20.8083 34.2475 18.2312 35.6318 15.3347 35.6318C12.4381 35.6318 9.86104 34.2475 8.22108 32.0963H0.979706C3.17342 37.8894 8.77484 42.0213 15.3347 42.0213C21.8945 42.0213 27.4959 37.8894 29.6896 32.0963H22.4483Z" fill="url(#paint0_linear)"/>
<path d="M15.3347 0C6.85801 0 0 6.85801 0 15.3347C0 23.8114 6.85801 30.6694 15.3347 30.6694C23.8114 30.6694 30.6694 23.8114 30.6694 15.3347C30.6694 6.85801 23.8114 0 15.3347 0ZM21.5538 19.4452C21.3621 22.5122 19.6795 24.0669 18.1673 24.8337C17.9757 24.9402 17.7627 24.7059 17.8905 24.5355C19.1045 22.5548 18.359 20.1907 16.9746 18.2951C15.5477 16.3357 15.0152 14.1207 15.0152 14.1207C15.0152 14.1207 14.0142 16.0162 12.3955 19.6582C11.4158 21.8519 12.0335 23.5558 12.6724 24.5568C12.8002 24.7485 12.5872 24.9615 12.3955 24.855C11.3945 24.3225 10.3509 23.4067 9.62678 21.8519C9.24341 21.0426 8.1572 18.0396 10.9686 14.1207C14.0568 9.90365 14.142 6.36815 14.0355 5.15416C14.0142 4.96247 14.2272 4.85598 14.3763 4.96247C14.7809 5.28195 15.143 5.64402 15.4412 6.04868C16.6126 7.56085 17.1237 9.43509 17.1237 11.2667C17.1237 12.3529 17.2302 13.2475 17.4219 13.7799C17.9118 15.0791 18.7637 14.5041 18.6146 12.2252C18.5933 12.0335 18.8276 11.927 18.9767 12.0548C19.4665 12.4807 20.2972 13.4604 20.9787 15.569C21.5325 17.2089 21.6389 18.5081 21.5538 19.4452Z" fill="url(#paint1_linear)"/>
<path d="M48.1552 18.6359C48.1552 17.1237 48.3682 15.7181 48.7941 14.4189C49.2201 13.141 49.8164 12.0335 50.5619 11.0963C51.3073 10.1805 52.1805 9.41379 53.1815 8.77485C54.1826 8.1146 55.2688 7.64604 56.4189 7.32657C57.569 7.0071 58.7617 6.85801 59.9757 6.85801C62.6166 6.85801 65.1511 7.51825 67.6217 8.81744V13.9716C66.3864 13.1836 65.1937 12.5659 64.0223 12.1613C62.8722 11.7566 61.6582 11.5649 60.3803 11.5649C58.2931 11.5649 56.5893 12.2039 55.2475 13.4604C53.9057 14.717 53.2454 16.4209 53.2454 18.6146C53.2454 20.9574 53.9057 22.7252 55.2049 23.9604C56.5254 25.1744 58.2505 25.7921 60.359 25.7921C61.2323 25.7921 62.1694 25.643 63.1278 25.3448V21.9584H57.5051V17.8053H67.6217V28.4757C65.2576 29.7748 62.7018 30.4138 59.9757 30.4138C56.8874 30.4138 54.14 29.4341 51.7972 27.4746C50.6897 26.5162 49.7951 25.2809 49.1349 23.7688C48.4747 22.2353 48.1552 20.5101 48.1552 18.6359Z" fill="#3B4D5B"/>
<path d="M70.7525 25.0254C70.7525 23.4919 71.3063 22.2566 72.4351 21.3621C73.5639 20.4675 74.9483 19.999 76.6308 19.999C78.0365 19.999 79.3357 20.3185 80.5497 20.9787V19.8712C80.5497 19.211 80.2941 18.6572 79.8043 18.2312C79.3144 17.8053 78.569 17.5923 77.5466 17.5923C75.5659 17.5923 73.5852 18.2099 71.6471 19.4452V15.0578C73.6278 14.1207 75.7363 13.6308 77.9726 13.6308C80.1876 13.6308 81.9341 14.1846 83.1694 15.2708C84.426 16.357 85.0649 17.6988 85.0649 19.2961V29.9026H80.8692V28.859C80.358 29.3063 79.7191 29.6684 78.931 29.9665C78.1643 30.2434 77.3124 30.3925 76.3753 30.3925C74.714 30.3925 73.3509 29.9239 72.3073 28.9655C71.2637 28.0284 70.7525 26.7079 70.7525 25.0254ZM75.1613 24.8976C75.1613 25.5365 75.3955 26.0477 75.8854 26.4097C76.3539 26.7718 76.9716 26.9635 77.6957 26.9635C78.2708 26.9635 78.8032 26.857 79.3144 26.6227C79.8256 26.4097 80.2302 26.1329 80.5497 25.8134V23.9178C80.2302 23.6623 79.8256 23.428 79.3144 23.2576C78.8032 23.0872 78.2708 22.9807 77.6744 22.9807C76.9503 22.9807 76.354 23.1511 75.8641 23.4919C75.3955 23.8327 75.1613 24.3012 75.1613 24.8976Z" fill="#3B4D5B"/>
<path d="M87.855 18.785C87.855 17.2941 88.43 16.0588 89.5588 15.1004C90.6876 14.1207 92.285 13.6308 94.3509 13.6308C96.2252 13.6308 97.9503 13.9929 99.5051 14.6957V18.785C97.7373 17.9757 96.0122 17.571 94.3296 17.571C93.6481 17.571 93.1369 17.6775 92.7962 17.9118C92.4554 18.1247 92.285 18.4229 92.285 18.785C92.285 19.3387 92.7536 19.7008 93.712 19.9138L95.4371 20.2759C97.0558 20.574 98.2698 21.1278 99.0578 21.9158C99.8459 22.7039 100.229 23.7688 100.229 25.1105C100.229 26.6866 99.6116 27.9858 98.3976 28.9442C97.2049 29.9026 95.5223 30.3925 93.3499 30.3925C91.6035 30.3925 89.7718 30.0304 87.8763 29.285V24.9615C88.7921 25.4087 89.7505 25.7495 90.7515 26.0264C91.7525 26.2819 92.6471 26.4097 93.4138 26.4097C94.8195 26.4097 95.5223 25.9838 95.501 25.1105C95.501 24.4503 95.0112 24.0456 94.0527 23.8753L92.2424 23.5345C89.3246 23.002 87.855 21.4047 87.855 18.785Z" fill="#3B4D5B"/>
<path d="M102.274 21.9797C102.274 19.5943 103.062 17.6136 104.659 16.0375C106.257 14.4402 108.323 13.6521 110.857 13.6521C113.391 13.6521 115.436 14.4402 117.055 16.0375C118.673 17.6136 119.483 19.6156 119.483 21.9797C119.483 24.3864 118.695 26.3884 117.097 27.9645C115.5 29.5619 113.434 30.3712 110.878 30.3925C109.196 30.3925 107.705 30.0091 106.406 29.285C105.107 28.5396 104.084 27.5385 103.36 26.2606C102.593 24.9828 102.253 23.5558 102.274 21.9797ZM106.938 21.9797C106.938 23.2576 107.3 24.2586 108.046 25.0254C108.791 25.7708 109.728 26.1329 110.836 26.1329C111.965 26.1329 112.902 25.7708 113.647 25.0254C114.393 24.2799 114.755 23.2576 114.755 21.9797C114.755 20.7231 114.371 19.7434 113.626 18.998C112.88 18.2525 111.943 17.8692 110.814 17.8692C109.707 17.8692 108.77 18.2525 108.024 18.998C107.322 19.7434 106.938 20.7444 106.938 21.9797Z" fill="#3B4D5B"/>
<path d="M122.315 29.9239V6.53854H126.809V29.9239H122.315Z" fill="#3B4D5B"/>
<path d="M129.876 8.26369C129.876 7.45436 130.153 6.77282 130.686 6.26166C131.218 5.7505 131.9 5.49493 132.709 5.49493C133.518 5.49493 134.2 5.7505 134.732 6.26166C135.265 6.77282 135.542 7.43306 135.542 8.26369C135.542 9.05172 135.265 9.73326 134.732 10.2657C134.2 10.7769 133.518 11.0325 132.709 11.0325C131.921 11.0325 131.239 10.7769 130.686 10.2657C130.132 9.71197 129.876 9.05172 129.876 8.26369ZM130.473 29.9239V14.1633H134.967V29.9239H130.473Z" fill="#3B4D5B"/>
<path d="M138.758 29.9239V14.1633H143.209V15.3986C144.38 14.2272 145.85 13.6308 147.618 13.6308C149.109 13.6308 150.45 14.1207 151.622 15.1004C152.175 15.5903 152.601 16.1866 152.921 16.932C153.24 17.6775 153.411 18.4868 153.411 19.4026V29.9239H148.896V20.5314C148.896 19.7008 148.64 19.0193 148.15 18.5081C147.66 17.997 147.043 17.7627 146.255 17.7627C145.104 17.7627 144.125 18.3164 143.294 19.4026V29.9239H138.758Z" fill="#3B4D5B"/>
<path d="M155.967 21.9158C155.967 20.2972 156.329 18.8489 157.031 17.5923C157.756 16.3144 158.735 15.3347 159.971 14.6531C161.206 13.9716 162.569 13.6308 164.06 13.6308C166.509 13.6308 168.426 14.3976 169.81 15.9523C171.216 17.4858 171.898 19.4878 171.898 21.9797C171.898 22.5335 171.876 22.9594 171.834 23.3002H160.673C160.716 24.3225 161.142 25.1318 161.951 25.7495C162.761 26.3458 163.698 26.644 164.741 26.644C166.786 26.644 168.767 26.0051 170.747 24.7059V28.6034C169.896 29.1572 168.958 29.5832 167.936 29.9026C166.935 30.2221 165.7 30.3925 164.273 30.3925C162.739 30.3925 161.334 30.073 160.098 29.4341C158.863 28.7951 157.862 27.8154 157.095 26.5162C156.35 25.217 155.967 23.6836 155.967 21.9158ZM160.78 20.2759H167.34C167.297 19.4665 166.978 18.785 166.403 18.2099C165.849 17.6349 165.061 17.358 164.039 17.358C163.123 17.358 162.356 17.6562 161.738 18.2312C161.163 18.8276 160.844 19.5091 160.78 20.2759Z" fill="#3B4D5B"/>
<path d="M174.794 29.9239V14.1633H179.245V16.4422C180.097 14.5679 181.503 13.6308 183.462 13.6308C183.867 13.6308 184.25 13.6521 184.634 13.716V18.3164C184.165 18.2099 183.612 18.146 182.973 18.146C182.121 18.146 181.333 18.4016 180.651 18.8915C179.948 19.4026 179.522 20.0203 179.309 20.787V29.9239H174.794Z" fill="#3B4D5B"/>
<path d="M186.359 25.0254C186.359 23.4919 186.913 22.2566 188.042 21.3621C189.17 20.4675 190.555 19.999 192.237 19.999C193.643 19.999 194.942 20.3185 196.156 20.9787V19.8712C196.156 19.211 195.901 18.6572 195.411 18.2312C194.921 17.8053 194.176 17.5923 193.153 17.5923C191.172 17.5923 189.192 18.2099 187.254 19.4452V15.0578C189.234 14.1207 191.343 13.6308 193.579 13.6308C195.794 13.6308 197.541 14.1846 198.776 15.2708C200.032 16.357 200.671 17.6988 200.671 19.2961V29.9026H196.476V28.859C195.965 29.3063 195.326 29.6684 194.538 29.9665C193.771 30.2434 192.919 30.3925 191.982 30.3925C190.321 30.3925 188.957 29.9239 187.914 28.9655C186.87 28.0284 186.359 26.7079 186.359 25.0254ZM190.768 24.8976C190.768 25.5365 191.002 26.0477 191.492 26.4097C191.961 26.7718 192.578 26.9635 193.302 26.9635C193.877 26.9635 194.41 26.857 194.921 26.6227C195.432 26.4097 195.837 26.1329 196.156 25.8134V23.9178C195.837 23.6623 195.432 23.428 194.921 23.2576C194.41 23.0872 193.877 22.9807 193.281 22.9807C192.557 22.9807 191.961 23.1511 191.471 23.4919C191.002 23.8327 190.768 24.3012 190.768 24.8976Z" fill="#3B4D5B"/>
<path d="M229.147 5.92089L227.507 29.7109H225.569L226.698 13.2262L227.124 9.22211H227.017L225.164 12.4594L217.689 24.1521L215.857 24.4077L211.64 13.0771L210.405 9.286H210.341L209.595 13.3966L206.294 29.7535H204.335L209.212 6.24036L211.171 5.96349L215.623 18.4442L216.879 22.0862H216.986L219.116 18.5081L226.932 6.26166L229.147 5.92089Z" fill="#52B798"/>
<path d="M230.894 23.0446C230.894 17.8479 233.939 14.0568 238.433 14.0568C241.202 14.0568 242.991 15.3986 242.948 17.8479C242.906 21.4899 238.923 24.0243 232.746 23.641C233.002 26.6227 234.599 28.4757 237.773 28.4757C243.63 28.4757 245.738 21.4899 249.977 14.3337L251.659 14.0568L254.705 20.0629L259.092 14.355H261.222L255.514 21.7241L258.049 26.4949C258.709 27.7515 259.241 28.3479 260.264 28.3479C261.84 28.3479 263.309 26.8357 264.481 24.9189L265.397 25.8986C263.927 28.2414 261.968 30.0091 259.859 30.0091C258.453 30.0091 257.474 29.3489 256.728 27.9432L254.3 23.3854L249.38 29.7323H247.314L253.491 21.7241L251.425 17.7201C251.106 17.1237 250.786 16.4209 250.573 15.8884H250.509C247.038 22.2353 244.546 29.9878 237.496 29.9878C233.002 29.9878 230.894 27.432 230.894 23.0446ZM241.117 17.8692C241.159 16.2931 240.094 15.5903 238.305 15.5903C235.174 15.5903 233.045 18.359 232.768 22.1927C237.986 22.4483 241.074 20.6379 241.117 17.8692Z" fill="#52B798"/>
<path d="M273.703 25.8986C272.255 28.2414 270.018 30.0091 267.569 30.0091C265.184 30.0091 263.927 28.3905 264.438 25.1744L266.163 14.3763L268.059 14.0994L266.312 25.0041C265.972 27.3895 266.525 28.3692 267.995 28.3692C269.954 28.3692 271.616 26.8996 272.766 24.9402L273.703 25.8986ZM266.376 9.86105C266.419 8.92393 267.143 8.1785 268.101 8.1785C268.868 8.1785 269.443 8.77485 269.443 9.52028C269.401 10.4574 268.634 11.2028 267.761 11.2028C266.973 11.2028 266.376 10.6065 266.376 9.86105Z" fill="#52B798"/>
<path d="M272.553 22.7252C272.617 17.6349 275.811 14.0568 280.241 14.0568C283.606 14.0568 285.119 16.1866 283.819 19.3813L282.094 18.9341C283.01 16.932 282.094 15.569 279.965 15.569C276.77 15.569 274.384 18.6572 274.384 22.7677C274.384 26.5588 276.131 28.4757 279.794 28.4757C282.946 28.4757 285.161 27.3469 286.737 24.8976L287.674 25.8773C285.843 28.646 283.244 29.9878 279.56 29.9878C274.64 29.9878 272.468 27.4746 272.553 22.7252Z" fill="#52B798"/>
<path d="M305.522 25.8986C304.159 28.1136 302.115 29.6471 299.665 29.6471C298.43 29.6471 297.386 29.2211 296.577 28.6035C295.278 29.5193 293.766 30.0091 292.062 30.0091C288.441 30.0091 286.588 27.8367 286.631 23.7688C286.695 18.2312 289.996 14.0781 294.98 14.0781C298.664 14.0781 300.496 16.2079 300.453 20.2546C300.453 23.1937 299.516 25.7921 297.855 27.5172C298.387 27.9432 299.048 28.2201 299.857 28.2201C301.753 28.2201 303.18 27.1978 304.628 24.9189L305.522 25.8986ZM298.6 20.212C298.6 17.1237 297.344 15.5903 294.873 15.5903C291.082 15.5903 288.484 19.211 288.42 23.8327C288.377 26.8783 289.719 28.4544 292.104 28.497C295.874 28.5609 298.579 24.9828 298.6 20.212Z" fill="#52B798"/>
</g>
<defs>
<linearGradient id="paint0_linear" x1="15.3347" y1="42.0065" x2="15.3347" y2="32.0864" gradientUnits="userSpaceOnUse">
<stop stop-color="#60BA8F"/>
<stop offset="1" stop-color="#7FC17C"/>
</linearGradient>
<linearGradient id="paint1_linear" x1="15.3347" y1="30.6694" x2="15.3347" y2="0" gradientUnits="userSpaceOnUse">
<stop stop-color="#85C278"/>
<stop offset="1" stop-color="#E5D73C"/>
</linearGradient>
<clipPath id="clip0">
<path d="M0 0H305.522V42H0V0Z" fill="white"/>
</clipPath>
</defs>
</svg>
